<svg id="icons" xmlns="http://www.w3.org/2000/svg">
	<symbol id="calendar">
		<path fill-rule="evenodd" d="M22.48 7.24c-.2 0-.38-.07-.53-.22-.14-.15-.22-.3-.22-.5V.73c0-.2.08-.38.22-.52.15-.13.33-.2.53-.2.18 0 .34.07.5.2.14.14.2.3.2.5v5.83c0 .18-.06.34-.2.5-.16.14-.32.2-.5.2zm1.75 12.02c-.28-.28-.63-.43-1.04-.43h-2.9c-.4 0-.75.15-1.03.43s-.42.63-.42 1.04v2.9c0 .4.14.74.42 1.02.28.3.63.43 1.04.43h2.9c.4 0 .75-.14 1.03-.43.28-.28.42-.63.42-1.03v-2.9c0-.4-.14-.76-.42-1.04zm.42-6.2c0-.4-.14-.76-.42-1.04-.28-.3-.63-.43-1.04-.43h-2.9c-.4 0-.75.13-1.03.42-.28.28-.42.63-.42 1.04v2.88c0 .4.14.76.42 1.04.28.3.63.43 1.04.43h2.9c.4 0 .75-.13 1.03-.42.28-.28.42-.63.42-1.04v-2.88zm-7.7 6.2c-.27-.28-.6-.43-1-.43h-2.9c-.4 0-.73.15-1 .43-.3.28-.44.63-.44 1.04v2.9c0 .4.15.74.44 1.02.28.3.6.43 1 .43h2.92c.4 0 .72-.14 1-.43.28-.28.43-.63.43-1.03v-2.9c0-.4-.16-.76-.44-1.04zm.44-6.2c0-.4-.16-.76-.44-1.04-.28-.3-.6-.43-1-.43h-2.92c-.4 0-.72.13-1 .42-.3.28-.43.63-.43 1.04v2.88c0 .4.15.76.44 1.04.28.3.6.43 1 .43h2.92c.4 0 .72-.13 1-.42.28-.28.43-.63.43-1.04v-2.88zm-8.7-8.7h11.6V2.88H8.7v1.45zM6.5 7.23c-.18 0-.34-.07-.5-.22-.14-.15-.2-.3-.2-.5V.73c0-.2.06-.38.2-.52.16-.13.32-.2.5-.2.2 0 .38.07.53.2.14.14.22.3.22.5v5.83c0 .18-.08.34-.22.5-.15.14-.33.2-.53.2zm3.2 12.02c-.27-.28-.62-.43-1.03-.43H5.8c-.4 0-.75.15-1.03.43s-.42.63-.42 1.04v2.9c0 .4.14.74.42 1.02.28.3.63.43 1.04.43h2.9c.4 0 .75-.14 1.03-.43.28-.28.42-.63.42-1.03v-2.9c0-.4-.14-.76-.42-1.04zm-5.37-6.2v2.88c0 .4.14.76.42 1.04.28.3.63.43 1.04.43h2.9c.4 0 .75-.13 1.03-.42.28-.28.42-.63.42-1.04v-2.88c0-.4-.14-.76-.42-1.04-.28-.3-.63-.43-1.04-.43H5.8c-.4 0-.75.13-1.03.42-.28.28-.42.63-.42 1.04zM27.55 2.9c.4 0 .74.13 1.03.4.28.3.42.64.42 1.05v23.2c0 .4-.14.74-.42 1.03-.3.28-.63.42-1.04.42H1.46c-.4 0-.75-.14-1.03-.42-.3-.3-.43-.63-.43-1.04V4.34c0-.4.14-.74.43-1.03.28-.27.62-.4 1.03-.4h2.9v1.45h-2.9v23.2h26.08V4.34h-2.9V2.9h2.9z"/>
	</symbol>
	<symbol id="dropdown-arrow">
	  <path fill="none" fill-rule="evenodd" stroke-width="2" d="M0 0l4.887 5L10 0"/>
	</symbol>
	<symbol id="arrow-back">
		<path fill-rule="evenodd" d="M12.97 6.933H3.41l4.652-5.136C8.45 1.367 8.43.692 8.015.29A1.006 1.006 0 0 0 6.56.337L.279 7.27a1.095 1.095 0 0 0 0 1.46l6.28 6.933a1.008 1.008 0 0 0 1.457.048 1.094 1.094 0 0 0 .046-1.508L3.41 9.067h9.56C13.539 9.067 14 8.59 14 8c0-.59-.461-1.067-1.03-1.067"/>
	</symbol>
  <symbol id="like">
    <path d="M26.601 30c1.118 0 2.084-.4 2.899-1.198.814-.798 1.22-1.755 1.22-2.87 0-.23-.025-.456-.077-.685a6.61 6.61 0 0 0-.19-.684c.432-.38.763-.83.992-1.35a4.073 4.073 0 0 0 .285-2.32 6.408 6.408 0 0 0-.17-.704c.431-.38.762-.829.99-1.35a4.047 4.047 0 0 0 .286-2.3 4.348 4.348 0 0 0-.172-.683 4.22 4.22 0 0 0 .992-1.389c.23-.519.344-1.07.344-1.653 0-1.116-.4-2.073-1.201-2.871s-1.775-1.198-2.918-1.198h-7.17c0-.025.012-.062.038-.114a3.17 3.17 0 0 0 .058-.19.782.782 0 0 0 .02-.19c.354-1.267.533-2.382.533-3.346 0-.963-.179-1.788-.534-2.472-.381-.785-.897-1.388-1.545-1.806A3.957 3.957 0 0 0 19.089 0c-.535 0-.992.07-1.373.209a9.125 9.125 0 0 0-.725.285 1.932 1.932 0 0 0-.554.418 1.742 1.742 0 0 0-.362.57l-.037.04c-.128.329-.357.867-.688 1.615a17.75 17.75 0 0 1-1.182 2.224A1553.068 1553.068 0 0 1 11.194 10l-.038.075v2.89l.457-.646c.534-.785 1.12-1.673 1.755-2.662.635-.989 1.359-2.141 2.174-3.46.61-.963 1.1-1.887 1.468-2.776.368-.886.565-1.33.591-1.33 0-.05.013-.088.038-.114.025-.025.05-.038.077-.038v-.038a4.33 4.33 0 0 1 .78-.21c.243-.038.44-.056.593-.056.508 0 .953.127 1.334.38.382.254.7.634.953 1.14.254.483.368 1.11.344 1.883-.026.774-.179 1.706-.459 2.795-.075.303-.152.584-.227.835-.077.255-.14.47-.192.647a.516.516 0 0 0-.037.342c.024.128.075.253.152.38a.91.91 0 0 0 .286.249.746.746 0 0 0 .362.094h8.276c.686 0 1.27.242 1.754.722.483.483.725 1.052.725 1.712a2.465 2.465 0 0 1-1.144 2.09.697.697 0 0 0-.344.457.742.742 0 0 0 .077.57c.1.229.177.45.229.666a2.555 2.555 0 0 1-.21 1.787c-.191.367-.464.665-.82.893h-.039a.74.74 0 0 0-.304.457.866.866 0 0 0 .037.57c.128.228.216.444.267.646.05.204.077.406.077.609a2.47 2.47 0 0 1-1.144 2.09.703.703 0 0 0-.344.457.742.742 0 0 0 .077.57c.101.204.177.413.229.628.05.216.076.425.076.627 0 .685-.243 1.268-.724 1.75a2.395 2.395 0 0 1-1.755.723h-8.77c-.739 0-1.641-.115-2.708-.343a38.138 38.138 0 0 1-3.624-.989l-.343-.075v1.673l.19.075c1.348.406 2.569.716 3.662.932 1.092.215 2.033.323 2.822.323h8.771zM5.906 24.044c.313.315.469.687.469 1.115 0 .455-.156.838-.469 1.154a1.552 1.552 0 0 1-1.144.473c-.426 0-.794-.158-1.106-.473a1.574 1.574 0 0 1-.469-1.154c0-.428.155-.8.469-1.115.312-.315.68-.473 1.106-.473.45 0 .83.158 1.144.473zm-4.312 4.349h6.375V9.107H1.594v19.286zM0 9.12c0-.453.156-.835.467-1.15.31-.314.69-.471 1.14-.471h6.387c.424 0 .79.157 1.102.47.311.316.466.698.466 1.15v19.298c0 .427-.155.797-.466 1.111-.313.314-.678.471-1.102.471H1.607c-.45 0-.83-.157-1.14-.47A1.527 1.527 0 0 1 0 28.417V9.12z" fill="#D01481" fill-rule="evenodd"/>
  </symbol>
  <symbol id="machine">
    <g fill="none" fill-rule="evenodd"><rect stroke="#4D9772" stroke-width="5.6" x="2.8" y="2.8" width="88.4" height="135.4" rx="14.4"/><rect stroke="#4D9772" stroke-width="3.2" x="13.651" y="18.424" width="66.697" height="45.669" rx="6.4"/><rect stroke="#4D9772" stroke-width="3.2" x="14.455" y="80.111" width="16.885" height="8.245" rx="2.4"/><rect stroke="#4D9772" stroke-width="3.2" x="38.557" y="80.111" width="16.885" height="8.245" rx="2.4"/><rect stroke="#4D9772" stroke-width="3.2" x="62.66" y="80.111" width="16.885" height="8.245" rx="2.4"/><rect stroke="#4D9772" stroke-width="3.2" x="14.455" y="96.134" width="16.885" height="8.245" rx="2.4"/><rect stroke="#4D9772" stroke-width="3.2" x="38.557" y="96.134" width="16.885" height="8.245" rx="2.4"/><rect stroke="#4D9772" stroke-width="3.2" x="62.66" y="96.134" width="16.885" height="8.245" rx="2.4"/><rect stroke="#4D9772" stroke-width="3.2" x="14.455" y="112.157" width="16.885" height="8.245" rx="2.4"/><rect stroke="#4D9772" stroke-width="3.2" x="38.557" y="112.157" width="16.885" height="8.245" rx="2.4"/><rect stroke="#4D9772" stroke-width="3.2" x="62.66" y="112.157" width="16.885" height="8.245" rx="2.4"/><ellipse fill="#4D9772" cx="35.35" cy="35.25" rx="4.017" ry="4.006"/><ellipse fill="#4D9772" cx="58.65" cy="35.25" rx="4.017" ry="4.006"/><path d="M47 55c6.544 0 10.169-2.92 10.873-8.76A2 2 0 0 0 55.887 44H38.113a2 2 0 0 0-1.986 2.24C36.831 52.08 40.456 55 47 55z" fill="#4D9772"/></g>
  </symbol>
</svg>
